name C:\Users\u0101727\Documents\MyRepositories\upper-imu-dc\Results\main_tracking\Case_41\FLX01_angularVelocities_groundFrame.mot
datacolumns 4
datarows 117
range 3.51000000 4.67000000
endheader 
time	radius_imu_x	radius_imu_y	radius_imu_z	
          3.51000000	         -0.01060712	         -0.05938588	         -0.10347629	
          3.52000000	         -0.00465190	         -0.05940613	         -0.10251145	
          3.53000000	          0.00148653	         -0.05980961	         -0.10090786	
          3.54000000	          0.00759083	         -0.06068686	         -0.09876049	
          3.55000000	          0.01345539	         -0.06209840	         -0.09616844	
          3.56000000	          0.01890311	         -0.06404882	         -0.09322913	
          3.57000000	          0.02379978	         -0.06646679	         -0.09003442	
          3.58000000	          0.02806412	         -0.06919506	         -0.08666892	
          3.59000000	          0.03167230	         -0.07199210	         -0.08321052	
          3.60000000	          0.03465630	         -0.07454576	         -0.07973288	
          3.61000000	          0.03709674	         -0.07649749	         -0.07630962	
          3.62000000	          0.03911141	         -0.07747297	         -0.07301955	
          3.63000000	          0.04084155	         -0.07711388	         -0.06995166	
          3.64000000	          0.04243766	         -0.07510536	         -0.06720887	
          3.65000000	          0.04404636	         -0.07119615	         -0.06490971	
          3.66000000	          0.04579905	         -0.06521010	         -0.06318787	
          3.67000000	          0.04780314	         -0.05705022	         -0.06218959	
          3.68000000	          0.05013622	         -0.04669783	         -0.06206950	
          3.69000000	          0.05284373	         -0.03420910	         -0.06298541	
          3.70000000	          0.05593982	         -0.01970944	         -0.06509210	
          3.71000000	          0.05941026	         -0.00338624	         -0.06853446	
          3.72000000	          0.06321651	          0.01451918	         -0.07344133	
          3.73000000	          0.06729957	          0.03371992	         -0.07992088	
          3.74000000	          0.07158322	          0.05389359	         -0.08805723	
          3.75000000	          0.07597713	          0.07469703	         -0.09790739	
          3.76000000	          0.08038025	          0.09578728	         -0.10949828	
          3.77000000	          0.08468484	          0.11684583	         -0.12282423	
          3.78000000	          0.08878079	          0.13759990	         -0.13784671	
          3.79000000	          0.09255975	          0.15783466	         -0.15449725	
          3.80000000	          0.09591831	          0.17739520	         -0.17268343	
          3.81000000	          0.09876040	          0.19618178	         -0.19229630	
          3.82000000	          0.10099910	          0.21414406	         -0.21321745	
          3.83000000	          0.10255887	          0.23127823	         -0.23532444	
          3.84000000	          0.10337894	          0.24762781	         -0.25849412	
          3.85000000	          0.10341735	          0.26328439	         -0.28260477	
          3.86000000	          0.10265450	          0.27838332	         -0.30753811	
          3.87000000	          0.10109512	          0.29309226	         -0.33318207	
          3.88000000	          0.09876884	          0.30759478	         -0.35943393	
          3.89000000	          0.09572982	          0.32207268	         -0.38620327	
          3.90000000	          0.09205592	          0.33669040	         -0.41341453	
          3.91000000	          0.08784774	          0.35158499	         -0.44100887	
          3.92000000	          0.08322807	          0.36686447	         -0.46894500	
          3.93000000	          0.07834218	          0.38261454	         -0.49719828	
          3.94000000	          0.07335870	          0.39890889	         -0.52575819	
          3.95000000	          0.06846970	          0.41581656	         -0.55462453	
          3.96000000	          0.06388824	          0.43340151	         -0.58380354	
          3.97000000	          0.05984221	          0.45171289	         -0.61330434	
          3.98000000	          0.05656405	          0.47076738	         -0.64313608	
          3.99000000	          0.05427755	          0.49052864	         -0.67330500	
          4.00000000	          0.05318384	          0.51089084	         -0.70381011	
          4.01000000	          0.05344909	          0.53167283	         -0.73463705	
          4.02000000	          0.05519635	          0.55262571	         -0.76575011	
          4.03000000	          0.05850288	          0.57345328	         -0.79708382	
          4.04000000	          0.06340402	          0.59384225	         -0.82853471	
          4.05000000	          0.06990329	          0.61349869	         -0.85995406	
          4.06000000	          0.07798754	          0.63218628	         -0.89114245	
          4.07000000	          0.08764424	          0.64975994	         -0.92184771	
          4.08000000	          0.09887692	          0.66618715	         -0.95176842	
          4.09000000	          0.11171491	          0.68155126	         -0.98056452	
          4.10000000	          0.12621545	          0.69603488	         -1.00787528	
          4.11000000	          0.14245788	          0.70988557	         -1.03334364	
          4.12000000	          0.16053135	          0.72336948	         -1.05664369	
          4.13000000	          0.18051873	          0.73672187	         -1.07750763	
          4.14000000	          0.20248026	          0.75010495	         -1.09574797	
          4.15000000	          0.22643918	          0.76357900	         -1.11127256	
          4.16000000	          0.25236929	          0.77708609	         -1.12409195	
          4.17000000	          0.28018198	          0.79044118	         -1.13431993	
          4.18000000	          0.30971113	          0.80332690	         -1.14216876	
          4.19000000	          0.34069723	          0.81529456	         -1.14793970	
          4.20000000	          0.37277520	          0.82577862	         -1.15200864	
          4.21000000	          0.40547101	          0.83412976	         -1.15480640	
          4.22000000	          0.43820980	          0.83966473	         -1.15679427	
          4.23000000	          0.47033659	          0.84172675	         -1.15843610	
          4.24000000	          0.50115091	          0.83975081	         -1.16016888	
          4.25000000	          0.52995852	          0.83333159	         -1.16237407	
          4.26000000	          0.55614080	          0.82229139	         -1.16535133	
          4.27000000	          0.57923395	          0.80673645	         -1.16929761	
          4.28000000	          0.59899797	          0.78708114	         -1.17429561	
          4.29000000	          0.61545641	          0.76402642	         -1.18031532	
          4.30000000	          0.62890269	          0.73850109	         -1.18722822	
          4.31000000	          0.63988262	          0.71158708	         -1.19482964	
          4.32000000	          0.64915880	          0.68443898	         -1.20286490	
          4.33000000	          0.65764956	          0.65819085	         -1.21105773	
          4.34000000	          0.66633342	          0.63384314	         -1.21914061	
          4.35000000	          0.67612692	          0.61214424	         -1.22688414	
          4.36000000	          0.68776400	          0.59350071	         -1.23412010	
          4.37000000	          0.70170905	          0.57794642	         -1.24075415	
          4.38000000	          0.71812413	          0.56518030	         -1.24676712	
          4.39000000	          0.73689339	          0.55465965	         -1.25220615	
          4.40000000	          0.75769265	          0.54572157	         -1.25716873	
          4.41000000	          0.78007837	          0.53769727	         -1.26178518	
          4.42000000	          0.80356009	          0.52998398	         -1.26620695	
          4.43000000	          0.82762815	          0.52205653	         -1.27060584	
          4.44000000	          0.85173940	          0.51343467	         -1.27518251	
          4.45000000	          0.87529495	          0.50364656	         -1.28017586	
          4.46000000	          0.89764799	          0.49222453	         -1.28586317	
          4.47000000	          0.91816118	          0.47874543	         -1.29254451	
          4.48000000	          0.93630958	          0.46290352	         -1.30051131	
          4.49000000	          0.95180114	          0.44458609	         -1.31000682	
          4.50000000	          0.96466765	          0.42391333	         -1.32119112	
          4.51000000	          0.97528361	          0.40121653	         -1.33412218	
          4.52000000	          0.98430680	          0.37696175	         -1.34875497	
          4.53000000	          0.99256867	          0.35165043	         -1.36495284	
          4.54000000	          1.00094901	          0.32572824	         -1.38250333	
          4.55000000	          1.01026066	          0.29952125	         -1.40113351	
          4.56000000	          1.02116435	          0.27321098	         -1.42052616	
          4.57000000	          1.03412054	          0.24683724	         -1.44032662	
          4.58000000	          1.04936214	          0.22032354	         -1.46015570	
          4.59000000	          1.06686841	          0.19349985	         -1.47963062	
          4.60000000	          1.08634437	          0.16611656	         -1.49837939	
          4.61000000	          1.10722556	          0.13787018	         -1.51605420	
          4.62000000	          1.12872954	          0.10844522	         -1.53233918	
          4.63000000	          1.14994629	          0.07756507	         -1.54695518	
          4.64000000	          1.16993431	          0.04503484	         -1.55966715	
          4.65000000	          1.18778819	          0.01076252	         -1.57029732	
          4.66000000	          1.20267254	         -0.02524003	         -1.57874086	
          4.67000000	          1.21384365	         -0.06286501	         -1.58497656	
